<svg viewBox="0 0 480 77" fill="none" xmlns="http://www.w3.org/2000/svg"><path fill-rule="evenodd" clip-rule="evenodd" d="M354.409 1H457.41C463.185 1 465.278 1.62506 467.41 2.75799C469.542 3.89092 471.17 5.57078 472.295 7.68037C473.419 9.78996 474.039 11.9386 474.039 17.7595V51.1771C474.039 56.998 473.419 59.1076 472.295 61.2562C471.17 63.4049 469.504 65.0457 467.41 66.1786C465.317 67.3115 463.185 67.9366 457.41 67.9366H354.409C348.633 67.9366 346.54 67.3115 344.408 66.1786C342.315 65.0457 340.648 63.3658 339.524 61.2562C338.4 59.1466 337.779 56.998 337.779 51.1771V17.7595C337.779 11.9386 338.4 9.82902 339.524 7.68037C340.648 5.57078 342.315 3.89092 344.408 2.75799C346.501 1.62506 348.633 1 354.409 1Z" fill="#2B70C9"/><path fill-rule="evenodd" clip-rule="evenodd" d="M444.904 48.4424C440.989 48.4424 438.005 47.1922 436.183 46.0593C435.252 45.4343 434.748 44.4967 434.748 43.52C434.748 42.0355 435.873 40.8635 437.423 40.8635C438.082 40.8635 438.702 41.0588 439.167 41.3713C441.454 42.6605 443.082 43.1684 445.137 43.1684C448.083 43.1684 449.672 41.8011 449.672 39.8868C449.672 38.246 448.703 37.2303 445.408 36.7615L443.935 36.5662C438.276 35.7848 435.175 33.1283 435.175 28.1669C435.175 23.0492 439.012 19.6113 445.021 19.6113C448.083 19.6113 451.145 20.4317 452.773 21.4475C453.742 22.0725 454.207 22.8929 454.207 23.8696C454.207 25.3932 453.083 26.487 451.61 26.487C451.029 26.487 450.409 26.3308 449.866 26.0182C448.509 25.3541 446.804 24.8853 445.098 24.8853C442.656 24.8853 441.338 26.1354 441.338 27.8934C441.338 29.4561 442.424 30.5109 445.68 30.9797L447.153 31.175C452.89 31.9954 455.874 34.5738 455.874 39.6524C455.874 44.7311 452.114 48.4424 444.904 48.4424ZM417.732 48.4424C411.258 48.4424 407.072 44.6529 407.072 37.66V23.0101C407.072 21.0959 408.351 19.8067 410.095 19.8067C411.801 19.8067 413.08 21.0959 413.08 23.0101V37.8944C413.08 41.2541 415.096 43.1293 417.732 43.1293C420.523 43.1293 422.344 41.2541 422.344 37.8944V23.0101C422.344 21.0959 423.624 19.8067 425.329 19.8067C427.073 19.8067 428.353 21.0959 428.353 23.0101V37.6991C428.314 44.6529 423.972 48.4424 417.732 48.4424ZM382.845 44.9264V23.0101C382.845 21.0959 384.124 19.8067 385.869 19.8067C387.574 19.8067 388.853 21.0959 388.853 23.0101V42.348C388.853 42.5043 388.931 42.5824 389.086 42.5824H398.97C400.792 42.5824 401.994 43.6763 401.994 45.2389C401.994 46.8407 400.792 47.9345 398.97 47.9345H385.869C384.008 47.9736 382.845 46.7625 382.845 44.9264ZM366.797 32.7767C369.317 32.7767 370.829 31.2922 370.829 29.0263C370.829 26.7605 369.317 25.2369 366.797 25.2369H362.223C362.068 25.2369 361.991 25.315 361.991 25.4713V32.5033C361.991 32.6595 362.068 32.7377 362.223 32.7377H366.797V32.7767ZM359.006 48.208C357.262 48.208 355.982 46.9188 355.982 45.0045V22.6976C355.982 21.0959 356.951 20.0411 358.58 20.0411H367.185C373.271 20.0411 376.837 23.7133 376.837 29.0263C376.837 34.3003 373.193 37.9726 367.185 37.9726H362.262C362.107 37.9726 362.029 38.0507 362.029 38.207V45.0045C361.991 46.9579 360.712 48.208 359.006 48.208Z" fill="white"/><path d="M299.016 48.4425C293.628 48.4425 290.062 44.2624 290.062 38.6759C290.062 33.0894 293.59 28.9093 299.016 28.9093C304.482 28.9093 307.971 33.0894 307.971 38.6759C307.971 44.2624 304.482 48.4425 299.016 48.4425ZM299.016 59.1467C310.994 59.1467 319.91 50.0052 319.91 38.6759C319.91 27.0732 310.955 18.2051 299.016 18.2051C287.116 18.2051 278.123 27.3466 278.123 38.6759C278.123 50.2786 287.116 59.1467 299.016 59.1467ZM252.85 67.1944C247.694 67.1944 243.857 63.8347 243.857 59.5374C243.857 54.7713 247.462 51.8804 252.85 51.8804C258.315 51.8804 261.92 54.7713 261.92 59.5374C261.92 63.9128 258.16 67.1944 252.85 67.1944ZM252.85 28.6358C257.153 28.6358 259.788 30.8626 259.788 35.3552C259.788 38.9103 256.842 42.0747 252.85 42.0747C248.857 42.0747 245.989 38.9494 245.989 35.3552C245.989 31.1751 248.702 28.6358 252.85 28.6358ZM265.835 45.9032C269.324 43.2857 271.456 39.34 271.456 34.8083C271.456 32.9331 271.068 31.2533 270.332 29.6125C274.247 27.6592 275.72 24.1041 275.72 20.7444C275.72 17.3847 274.402 16.408 272.464 17.3065C265.525 20.51 264.556 20.6663 259.982 19.8459C257.114 19.338 255.021 18.9473 252.23 18.9473C247.074 18.9473 242.849 20.5881 239.322 23.5572C235.988 26.37 234.282 30.4719 234.282 34.8083C234.282 39.34 236.337 43.2857 239.903 45.9032C235.252 48.3644 231.995 53.5602 231.995 59.7327C231.995 69.9291 240.136 77.0001 252.811 77.0001C266.107 77.0001 273.704 69.1868 273.704 58.9905C273.743 52.818 270.487 48.2081 265.835 45.9032ZM208.815 18.2051C203.931 18.2051 199.28 20.1975 196.024 23.7134C194.085 20.5881 191.527 18.9473 189.318 18.9473C187.69 18.9473 186.876 19.8459 186.876 21.8382V53.7165C186.876 56.6074 188.038 57.6622 190.791 57.6622H194.783C197.652 57.6622 198.698 56.4902 198.698 53.7165V38.9884C198.698 33.0894 202.109 29.5343 207.11 29.5343C212.188 29.5343 214.862 32.9722 214.862 39.1447V53.7555C214.862 56.6465 216.025 57.7013 218.777 57.7013H222.77C225.522 57.7013 226.685 56.6465 226.685 53.7555V38.5196C226.685 26.0965 220.405 18.2051 208.815 18.2051ZM169.82 57.6622H173.812C176.681 57.6622 177.728 56.4902 177.728 53.7165V23.6353C177.728 20.8616 176.681 19.6896 173.812 19.6896H169.82C166.951 19.6896 165.905 20.8616 165.905 23.6353V53.7165C165.905 56.4902 166.951 57.6622 169.82 57.6622ZM171.836 14.2594C175.441 14.2594 178.503 11.4466 178.503 7.85246C178.503 4.29741 175.479 1.44556 171.836 1.44556C168.153 1.44556 165.168 4.25834 165.168 7.85246C165.168 11.4466 168.114 14.2594 171.836 14.2594ZM148.849 57.6622H152.842C155.594 57.6622 156.757 56.6074 156.757 53.7165V4.37554C156.757 2.38315 155.943 1.48462 154.315 1.48462C150.322 1.48462 144.934 6.91486 144.934 16.3689V53.7555C144.934 56.6074 146.097 57.6622 148.849 57.6622ZM117.529 48.4425C112.141 48.4425 108.575 44.2624 108.575 38.6759C108.575 33.0894 112.102 28.9093 117.529 28.9093C122.994 28.9093 126.483 33.0894 126.483 38.6759C126.444 44.2624 122.994 48.4425 117.529 48.4425ZM117.529 59.1467C129.507 59.1467 138.422 50.0052 138.422 38.6759C138.422 27.0732 129.468 18.2051 117.529 18.2051C105.629 18.2051 96.6357 27.3466 96.6357 38.6759C96.6357 50.2786 105.629 59.1467 117.529 59.1467ZM86.0535 19.6896H82.0609C79.1924 19.6896 78.1458 20.8616 78.1458 23.6353V38.3634C78.1458 44.3015 75.1223 47.8174 70.2382 47.8174C65.1991 47.8174 62.6407 44.4577 62.6407 38.2071V23.6353C62.6407 20.7444 61.4778 19.6896 58.7257 19.6896H54.7331C51.9809 19.6896 50.8181 20.7444 50.8181 23.6353V38.5196C50.8181 51.2553 57.1752 59.1467 68.3389 59.1467C73.3005 59.1467 77.7195 57.1934 80.8205 53.7946C82.6811 56.7637 85.2394 58.4045 87.5265 58.4045C88.9219 58.4045 89.9685 57.5059 89.9685 55.5135V23.6353C89.9685 20.7444 88.8056 19.6896 86.0535 19.6896ZM21.2808 48.4425C15.5827 48.4425 11.9777 44.2624 11.9777 38.6759C11.9777 33.0894 15.5827 28.9093 21.2808 28.9093C26.9789 28.9093 30.5839 33.0894 30.5839 38.6759C30.5839 44.2624 26.9789 48.4425 21.2808 48.4425ZM40.197 1.44556C35.9719 1.44556 30.5839 6.87579 30.5839 16.3299V20.9397C27.7929 19.1427 24.5369 18.166 20.4668 18.166C8.95421 18.2051 0 27.3466 0 38.6759C0 50.0052 8.56658 59.1467 20.3892 59.1467C26.0874 59.1467 30.5839 57.0762 33.5298 54.2243C35.468 56.9199 37.8713 58.4045 39.9645 58.4045C41.5925 58.4045 42.4065 57.5059 42.4065 55.5135V4.14114C42.4065 2.34409 41.5925 1.44556 40.197 1.44556Z" fill="#2B70C9"/></svg>