<svg viewBox="0 0 144 166" fill="none" xmlns="http://www.w3.org/2000/svg"><path opacity="0.3" d="M34.3686 165.821C32.1734 165.821 30.4486 164.089 30.4486 161.885C30.4486 159.681 32.1734 157.949 34.3686 157.949H118.412C120.608 157.949 122.332 159.681 122.332 161.885C122.332 164.089 120.608 165.821 118.412 165.821H34.3686Z" fill="#AFAFAF"/><path d="M48.0099 145.983C47.0691 142.52 48.9507 139.056 52.4003 137.954C55.8498 137.009 59.2994 138.898 60.397 142.362C60.8674 143.779 62.1218 144.881 63.5329 145.354C66.8257 146.771 68.3937 150.392 66.9825 153.698C65.5713 157.004 61.9649 158.579 58.6722 157.162C53.4978 155.587 49.5779 151.336 48.0099 145.983Z" fill="#F49000"/><path d="M113.865 145.983C112.297 151.179 108.377 155.43 103.203 157.319C99.9101 158.736 96.1469 157.319 94.7357 154.17C93.3245 150.864 94.7357 147.085 97.8717 145.668C98.0285 145.511 98.1853 145.511 98.4989 145.511C99.9101 145.038 101.164 143.936 101.635 142.519C102.576 139.056 106.182 137.166 109.632 138.111C113.081 139.056 114.806 142.677 113.865 145.983Z" fill="#F49000"/><path d="M3.47933 136.852L36.2502 69.309C37.6613 66.3176 41.1109 65.0581 44.0901 66.4751C44.7173 66.7899 45.1877 67.1048 45.6581 67.5772C63.5331 85.3682 63.6899 114.18 45.9717 132.129C36.0934 142.205 21.9815 147.086 8.02648 145.354C4.73372 144.882 2.53854 141.89 3.00894 138.584C3.00894 138.112 3.32253 137.482 3.47933 136.852Z" fill="#58CC02"/><path d="M135.974 107.882C138.012 110.559 137.385 114.18 134.876 116.227C134.406 116.542 133.935 116.857 133.308 117.014C109.475 124.886 83.7599 111.818 75.92 87.887C71.5297 74.347 73.5681 59.7048 81.5648 47.8966C83.4463 45.2201 87.0527 44.5903 89.7183 46.3222C90.1887 46.6371 90.6591 47.1094 91.1295 47.7391L135.974 107.882Z" fill="#43C000"/><path fill-rule="evenodd" clip-rule="evenodd" d="M15.2392 43.8033C36.7206 41.2842 50.2052 38.9226 55.8499 36.4035C59.4563 34.6716 62.4355 31.5227 64.317 27.9016C68.7074 19.7145 78.8993 16.8806 87.0528 21.289C90.3456 23.1783 92.8543 26.0122 94.4223 29.476L114.022 75.7642C125.312 100.955 114.179 130.712 89.0912 142.048C64.0034 153.383 34.3686 142.205 23.0791 117.014C22.7655 116.227 22.4519 115.597 22.1383 114.81L1.91134 66.9474C-1.69502 58.4455 2.22493 48.5266 10.8488 44.9054C12.1032 44.4331 13.6712 43.9607 15.2392 43.8033Z" fill="#58CC02"/><path d="M83.2896 104.733L71.6865 109.614C71.5297 109.614 71.5297 109.772 71.3729 109.772C70.9025 110.086 70.9025 110.716 71.2161 111.031C72.6273 112.448 74.6657 113.235 76.7041 113.235C81.0944 113.235 84.544 109.772 84.544 105.363C84.544 105.206 84.544 105.206 84.3872 105.048C84.3872 104.576 83.9168 104.418 83.2896 104.733ZM103.673 97.0187C103.517 96.5463 102.889 96.3889 102.419 96.5463L90.9727 101.427C90.8159 101.427 90.8159 101.585 90.6591 101.585C90.1887 101.899 90.1887 102.529 90.6591 103.002C92.0703 104.418 94.1087 105.206 96.147 105.206C100.537 105.206 103.987 101.742 103.987 97.3336C103.83 97.1761 103.673 97.1761 103.673 97.0187ZM97.5582 110.086L85.9552 114.967C85.7984 114.967 85.7984 115.125 85.6416 115.125C85.328 115.439 85.1712 116.069 85.6416 116.384C87.0527 117.801 89.0911 118.588 91.1295 118.588C95.5198 118.588 98.9694 115.125 98.9694 110.716C98.9694 110.559 98.9694 110.559 98.8126 110.401C98.499 110.086 98.0286 109.772 97.5582 110.086Z" fill="#89E219"/><path fill-rule="evenodd" clip-rule="evenodd" d="M80.3104 71.5133L70.5889 75.6068C72.1569 84.1087 67.6097 92.6106 59.613 96.0743L58.0451 96.7041C48.6372 100.64 37.8181 96.3892 33.7413 86.9427L29.351 76.5514C26.5286 69.9388 27.783 62.3816 32.4869 57.0285C31.8597 55.2967 31.7029 53.2499 31.8597 51.5181C32.0165 50.5734 32.8005 49.9436 33.7413 49.9436C33.8981 49.9436 34.0549 49.9436 34.2117 50.1011L38.4453 52.1478C37.3477 49.9436 36.8773 47.4245 37.1909 44.9055C37.1909 44.1182 37.8181 43.4885 38.6021 43.4885C38.9157 43.4885 39.0725 43.4885 39.3861 43.6459L59.4562 52.7776C64.4738 53.8797 69.3345 51.0457 71.2161 46.3224C71.3729 45.8501 71.6865 45.3778 71.8433 44.9055V44.748L76.704 27.2719C77.0176 26.3272 77.9584 26.0123 78.8992 26.6421C80.4672 27.5868 82.0352 28.8463 83.1328 30.4207L83.76 28.0591C84.0736 27.2719 85.1712 26.7995 85.9551 27.1144C86.1119 27.1144 86.1119 27.2719 86.2687 27.2719C89.2479 28.8463 91.5999 31.8377 92.3839 35.144C95.6766 36.7184 98.1854 39.395 99.5966 42.7013L106.966 60.1774C110.259 67.5772 106.966 76.394 99.5966 79.7003C92.2271 83.0066 83.4464 79.7003 80.1536 72.3005C80.4672 71.8282 80.3104 71.6707 80.3104 71.5133Z" fill="#89E219"/><path fill-rule="evenodd" clip-rule="evenodd" d="M65.2578 80.0151C56.4771 77.3386 46.9124 78.1258 38.6021 82.2193L35.9365 75.7642C33.2709 68.6793 37.0341 60.6497 44.09 58.1306C50.6755 55.769 58.0451 58.7604 61.181 65.0581L64.317 72.6153C65.2578 74.977 65.5714 77.4961 65.2578 80.0151Z" fill="white"/><path fill-rule="evenodd" clip-rule="evenodd" d="M46.5989 79.3855C48.794 77.6536 49.578 74.6622 48.4804 71.8282L45.6581 65.2156C44.5605 62.5391 41.8949 60.9647 39.0725 61.2796C38.9157 61.437 38.9157 61.437 38.7589 61.5945C38.6021 61.7519 38.6022 61.7519 38.4454 61.9093C38.2886 62.0668 38.1318 62.2242 37.975 62.3817C39.0725 63.1689 39.5429 64.4284 39.6997 65.8454C39.8565 68.5219 37.6614 70.5687 35.1526 70.7261C35.1526 71.1985 35.1526 71.6708 35.1526 72.1431C35.1526 72.3006 35.1526 72.3006 35.1526 72.458C35.1526 72.7729 35.3094 73.0878 35.3094 73.4027C35.3094 73.5601 35.3094 73.7176 35.4662 73.875L36.7206 76.8664C37.6614 79.0706 39.6997 80.4876 41.8949 80.8025C43.3061 80.1727 45.0309 79.8578 46.5989 79.3855Z" fill="#122431"/><path fill-rule="evenodd" clip-rule="evenodd" d="M101.321 59.2326C94.4223 61.7517 88.4639 66.3175 84.0736 72.4578C82.976 71.3557 82.0352 70.0962 81.408 68.6792L76.2337 56.3986C73.5681 50.8882 75.7633 44.2756 81.2512 41.599C86.7391 38.9225 93.3247 41.1267 95.9902 46.6372C96.147 46.9521 96.3038 47.4244 96.4606 47.7393L101.321 59.2326Z" fill="white"/><path fill-rule="evenodd" clip-rule="evenodd" d="M77.9585 60.6494L76.2337 56.241C76.2337 56.0836 76.0769 55.9261 76.0769 55.7687C78.1153 54.6666 79.0561 52.1475 78.1153 49.9433C77.8017 49.1561 77.1745 48.3689 76.3905 47.8965C76.8609 47.5817 77.3313 47.2668 77.8017 46.9519C80.4672 45.8498 83.6032 47.1093 84.7008 49.7859L88.464 58.6026C89.5615 61.2792 88.3072 64.428 85.6416 65.5301C82.976 66.6322 79.8401 65.3727 78.7425 62.6962L77.9585 60.6494Z" fill="#122431"/><path d="M87.8367 77.6535L87.0527 75.9217C86.7391 74.977 85.9551 74.3472 85.1711 73.8749V73.2451C83.7599 69.624 79.6832 67.8921 76.0768 69.3091L74.6656 69.9388C71.0592 71.3558 69.3345 75.4493 70.7457 79.0705L72 82.0619C73.4112 85.6831 77.488 87.415 81.0943 85.998L82.5055 85.5257C83.7599 85.0533 84.7007 84.2661 85.4847 83.3215H85.6415C87.6799 82.2194 88.7775 79.7003 87.8367 77.6535Z" fill="#F49000"/><path d="M86.8958 78.1259L86.1118 76.394C85.6414 74.977 84.0734 74.3473 82.6622 74.977C81.4078 75.6068 80.7806 77.0238 81.251 78.4408L81.8782 80.1726C82.3486 81.5896 83.9166 82.2194 85.3278 81.5896C86.739 81.1173 87.3662 79.5429 86.8958 78.1259Z" fill="#B66E28"/><path d="M68.8641 79.8577C67.7665 74.5046 71.216 69.1515 76.5472 68.0494C80.6239 67.2622 84.7007 68.9941 86.8959 72.4578L87.0527 72.7727L83.1327 76.079L68.8641 80.1725V79.8577Z" fill="#FFC200"/><path d="M74.9792 73.2452C74.352 73.7176 73.568 73.5601 73.0976 72.9304C72.6272 72.3006 72.6272 71.5134 73.2544 71.041C74.6656 69.9389 76.3904 69.3092 78.272 69.1517C79.056 68.9943 79.6832 69.6241 79.84 70.4113C79.9968 71.1985 79.3696 71.8283 78.5856 71.9857C78.4288 71.9857 78.4288 71.9857 78.272 71.9857C77.0176 71.9857 75.92 72.458 74.9792 73.2452Z" fill="#FFDE00"/><path fill-rule="evenodd" clip-rule="evenodd" d="M138.012 47.739L139.267 41.9136L129.702 39.8669L127.664 50.1006C127.193 52.6197 124.684 54.3516 122.176 53.7218C119.667 53.2495 117.942 50.7304 118.569 48.2113C119.04 45.6922 121.548 43.9604 124.057 44.5901C124.528 44.7476 124.998 44.905 125.468 45.2199L127.82 34.1989C127.977 33.5691 128.448 33.2543 129.075 33.4117L142.716 36.4031C143.343 36.5606 143.657 37.0329 143.5 37.6627L140.364 52.9346C139.894 55.4537 137.385 57.1856 134.876 56.5558C132.367 56.0835 130.643 53.5644 131.27 51.0453C131.897 48.5262 134.249 46.7943 136.758 47.4241C137.228 47.2667 137.699 47.4241 138.012 47.739Z" fill="#92D5FF"/><path fill-rule="evenodd" clip-rule="evenodd" d="M111.67 13.4167L107.75 4.59987C107.593 4.12755 107.75 3.49777 108.221 3.34033L113.865 0.821248C114.336 0.663805 114.963 0.821248 115.12 1.29358L116.531 4.28499C116.688 4.75732 116.531 5.38709 116.061 5.54453L112.141 7.2764L115.747 15.4634C115.747 15.4634 115.747 15.6209 115.904 15.6209C116.844 17.6676 115.904 20.0293 113.865 20.9739C111.827 21.9186 109.475 20.9739 108.534 18.9272C107.593 16.8804 108.534 14.5188 110.573 13.5741C110.886 13.5741 111.357 13.4167 111.67 13.4167Z" fill="#B1E1FF"/></svg>